/vscmnt/brussel_pixiu_data/_data_brussel/112/vsc11236/PredSimResults/SUBJ11opt3D/expIG/worker_14.mot
version=1
nRows=4
nColumns=50
inDegrees=yes
endheader
                time	         pelvis_tilt	         pelvis_list	     pelvis_rotation	           pelvis_tx	           pelvis_ty	           pelvis_tz	       hip_flexion_r	     hip_adduction_r	      hip_rotation_r	        knee_angle_r	       ankle_angle_r	         mtp_angle_r	       hip_flexion_l	     hip_adduction_l	      hip_rotation_l	        knee_angle_l	       ankle_angle_l	         mtp_angle_l	    lumbar_extension	      lumbar_bending	     lumbar_rotation	 ercspn_r/activation	 intobl_r/activation	 extobl_r/activation	    abd_r/activation	    add_r/activation	hamstrings_r/activation	bifemsh_r/activation	glut_max_r/activation	iliopsoas_r/activation	rect_fem_r/activation	  vasti_r/activation	gastroc_r/activation	 soleus_r/activation	tib_ant_r/activation	 ercspn_l/activation	 intobl_l/activation	 extobl_l/activation	    abd_l/activation	    add_l/activation	hamstrings_l/activation	bifemsh_l/activation	glut_max_l/activation	iliopsoas_l/activation	rect_fem_l/activation	  vasti_l/activation	gastroc_l/activation	 soleus_l/activation	tib_ant_l/activation	
          0.95464981	        -11.12632636	         -5.92327264	          9.52945995	          1.81383463	          0.91662134	         -0.00615059	         40.83942887	          0.29118707	         -8.10225106	         -7.60871105	          4.40593396	          0.36943378	        -10.57324667	         -7.34350009	          2.55647087	        -14.44798544	          3.54186299	         44.18344193	         -9.56111851	          5.06204223	         -3.89959661	          0.12002226	          0.24121502	          0.01343534	          0.07360419	          0.49847249	          0.13288091	          0.38637227	          0.05413468	          0.16591690	          0.03088531	          0.00999999	          0.01805073	          0.01557297	          0.67864416	          0.02546073	          0.01159107	          0.01000000	          0.01809278	          0.23100174	          0.02092283	          0.32117646	          0.01805076	          0.65120351	          0.01557297	          0.01805077	          0.24216994	          0.21176088	          0.01153555	
          0.96419630	        -11.04397927	         -5.84389681	          9.57807691	          1.83668123	          0.91408918	         -0.00536056	         40.83217286	          0.36657194	         -8.57244342	         -9.48917813	          3.43182098	          0.40943866	        -11.31108776	         -7.46388551	          2.15665413	        -15.53520506	          1.95102022	         45.71358045	         -9.05434960	          5.07333630	         -4.11359466	          0.10498681	          0.20810395	          0.01159110	          0.06350070	          0.51344142	          0.11464063	          0.33333578	          0.27545304	          0.14314184	          0.02664575	          0.00999999	          0.01557294	          0.01343530	          0.80362422	          0.02842874	          0.00999999	          0.01000001	          0.01560922	          0.29764294	          0.01805080	          0.28937661	          0.01557297	          0.78685565	          0.01343531	          0.01557298	          0.20892780	          0.18269292	          0.00999999	
          0.97374280	        -10.93691879	         -5.76745933	          9.56044883	          1.85942314	          0.91166640	         -0.00455481	         40.70303633	          0.43112988	         -8.77063450	        -11.68976698	          2.52516987	          0.27753225	        -11.56516729	         -7.55681083	          1.74561334	        -17.55587666	          0.64322888	         46.58381689	         -8.59416291	          5.10982305	         -4.26036656	          0.09789312	          0.20354014	          0.01000001	          0.20778669	          0.51606555	          0.09890416	          0.28757950	          0.43261166	          0.12349307	          0.02298815	          0.00999999	          0.01343528	          0.01159107	          0.87999769	          0.14531788	          0.00999999	          0.01000000	          0.01346658	          0.25678614	          0.01557301	          0.24965452	          0.01343530	          0.86975066	          0.01159107	          0.01343531	          0.18024873	          0.15761506	          0.00999999	
          0.98328930	        -10.81031192	         -5.70826081	          9.47722562	          1.88175928	          0.90963202	         -0.00367389	         40.53339059	          0.54198734	         -8.89842108	        -13.86252096	          1.75837442	          0.22659897	        -11.24412091	         -7.64930767	          1.35415249	        -20.58249330	         -0.53016781	         46.82352132	         -8.21227437	          5.18361048	         -4.33774937	          0.11807949	          0.17560063	          0.00999999	          0.24832437	          0.48262350	          0.08532780	          0.24810408	          0.49607926	          0.10654144	          0.01983263	          0.01000000	          0.01159105	          0.00999999	          0.92666837	          0.13728654	          0.00999999	          0.01159107	          0.01161805	          0.23759018	          0.01343533	          0.21538498	          0.01159107	          0.92040654	          0.01000000	          0.01159107	          0.15550637	          0.13597958	          0.00999999	
